<mxfile host="Electron" modified="2024-01-12T02:58:11.259Z" agent="Mozilla/5.0 (Windows NT 10.0; Win64; x64) AppleWebKit/537.36 (KHTML, like Gecko) draw.io/22.1.2 Chrome/114.0.5735.289 Electron/25.9.4 Safari/537.36" etag="lDEEIPk9HxjinlvOSS9b" version="22.1.2" type="device">
  <diagram name="Page-1" id="74e2e168-ea6b-b213-b513-2b3c1d86103e">
    <mxGraphModel dx="1572" dy="1575" grid="1" gridSize="10" guides="1" tooltips="1" connect="1" arrows="1" fold="1" page="1" pageScale="1" pageWidth="1100" pageHeight="850" background="none" math="0" shadow="0">
      <root>
        <mxCell id="0" />
        <mxCell id="1" parent="0" />
        <mxCell id="MfqJ85OkA7hmNE3ASJ4m-20" value="交互流程" style="swimlane;childLayout=stackLayout;resizeParent=1;resizeParentMax=0;startSize=20;html=1;" parent="1" vertex="1">
          <mxGeometry x="460" y="-41" width="610" height="421" as="geometry" />
        </mxCell>
        <mxCell id="MfqJ85OkA7hmNE3ASJ4m-31" value="前端" style="swimlane;startSize=20;html=1;" parent="MfqJ85OkA7hmNE3ASJ4m-20" vertex="1">
          <mxGeometry y="20" width="140" height="401" as="geometry" />
        </mxCell>
        <mxCell id="MfqJ85OkA7hmNE3ASJ4m-34" style="edgeStyle=orthogonalEdgeStyle;rounded=0;orthogonalLoop=1;jettySize=auto;html=1;" parent="MfqJ85OkA7hmNE3ASJ4m-31" source="MfqJ85OkA7hmNE3ASJ4m-33" edge="1">
          <mxGeometry relative="1" as="geometry">
            <mxPoint x="160" y="45" as="targetPoint" />
          </mxGeometry>
        </mxCell>
        <mxCell id="MfqJ85OkA7hmNE3ASJ4m-33" value="&lt;font style=&quot;font-size: 8px;&quot;&gt;&lt;b&gt;创建知识库&lt;/b&gt;&lt;/font&gt;" style="rounded=0;whiteSpace=wrap;html=1;" parent="MfqJ85OkA7hmNE3ASJ4m-31" vertex="1">
          <mxGeometry x="30" y="30" width="60" height="30" as="geometry" />
        </mxCell>
        <mxCell id="MfqJ85OkA7hmNE3ASJ4m-37" value="&lt;font style=&quot;font-size: 8px;&quot;&gt;&lt;b&gt;上传文件到知识库&lt;/b&gt;&lt;/font&gt;" style="rounded=0;whiteSpace=wrap;html=1;" parent="MfqJ85OkA7hmNE3ASJ4m-31" vertex="1">
          <mxGeometry x="30" y="79" width="60" height="30" as="geometry" />
        </mxCell>
        <mxCell id="MfqJ85OkA7hmNE3ASJ4m-74" value="&lt;span style=&quot;font-size: 8px;&quot;&gt;&lt;b&gt;知识库查询&lt;/b&gt;&lt;/span&gt;" style="rounded=0;whiteSpace=wrap;html=1;" parent="MfqJ85OkA7hmNE3ASJ4m-31" vertex="1">
          <mxGeometry x="30" y="267" width="60" height="30" as="geometry" />
        </mxCell>
        <mxCell id="MfqJ85OkA7hmNE3ASJ4m-29" value="服务端&lt;span style=&quot;white-space: pre;&quot;&gt;&#x9;&lt;/span&gt;" style="swimlane;startSize=20;html=1;" parent="MfqJ85OkA7hmNE3ASJ4m-20" vertex="1">
          <mxGeometry x="140" y="20" width="140" height="401" as="geometry" />
        </mxCell>
        <mxCell id="MfqJ85OkA7hmNE3ASJ4m-35" value="&lt;font style=&quot;font-size: 9px;&quot;&gt;&lt;b&gt;KnowledgeBase表增加一条数据&lt;/b&gt;&lt;/font&gt;" style="rounded=0;whiteSpace=wrap;html=1;" parent="MfqJ85OkA7hmNE3ASJ4m-29" vertex="1">
          <mxGeometry x="20" y="30" width="110" height="30" as="geometry" />
        </mxCell>
        <mxCell id="MfqJ85OkA7hmNE3ASJ4m-58" style="edgeStyle=orthogonalEdgeStyle;rounded=0;orthogonalLoop=1;jettySize=auto;html=1;entryX=0.5;entryY=0;entryDx=0;entryDy=0;" parent="MfqJ85OkA7hmNE3ASJ4m-29" source="MfqJ85OkA7hmNE3ASJ4m-39" target="MfqJ85OkA7hmNE3ASJ4m-56" edge="1">
          <mxGeometry relative="1" as="geometry" />
        </mxCell>
        <mxCell id="MfqJ85OkA7hmNE3ASJ4m-39" value="&lt;font style=&quot;font-size: 8px;&quot;&gt;上传到服务器或OSS&lt;/font&gt;" style="rounded=0;whiteSpace=wrap;html=1;" parent="MfqJ85OkA7hmNE3ASJ4m-29" vertex="1">
          <mxGeometry x="27.5" y="80" width="85" height="30" as="geometry" />
        </mxCell>
        <mxCell id="MfqJ85OkA7hmNE3ASJ4m-63" style="edgeStyle=orthogonalEdgeStyle;rounded=0;orthogonalLoop=1;jettySize=auto;html=1;exitX=0.5;exitY=1;exitDx=0;exitDy=0;entryX=0.5;entryY=0;entryDx=0;entryDy=0;" parent="MfqJ85OkA7hmNE3ASJ4m-29" source="MfqJ85OkA7hmNE3ASJ4m-56" target="MfqJ85OkA7hmNE3ASJ4m-59" edge="1">
          <mxGeometry relative="1" as="geometry" />
        </mxCell>
        <mxCell id="MfqJ85OkA7hmNE3ASJ4m-56" value="&lt;font style=&quot;font-size: 8px;&quot;&gt;发送MQ消息&lt;/font&gt;" style="rounded=0;whiteSpace=wrap;html=1;" parent="MfqJ85OkA7hmNE3ASJ4m-29" vertex="1">
          <mxGeometry x="27.5" y="126" width="85" height="30" as="geometry" />
        </mxCell>
        <mxCell id="MfqJ85OkA7hmNE3ASJ4m-59" value="&lt;span style=&quot;font-size: 8px;&quot;&gt;Worker(文件加载，文本分割TestSplitter)&lt;/span&gt;" style="rounded=0;whiteSpace=wrap;html=1;" parent="MfqJ85OkA7hmNE3ASJ4m-29" vertex="1">
          <mxGeometry x="27.5" y="170" width="85" height="30" as="geometry" />
        </mxCell>
        <mxCell id="MfqJ85OkA7hmNE3ASJ4m-65" value="&lt;span style=&quot;font-size: 8px;&quot;&gt;创建知识库文件切片转向量数据的ID&lt;/span&gt;" style="rounded=0;whiteSpace=wrap;html=1;" parent="MfqJ85OkA7hmNE3ASJ4m-29" vertex="1">
          <mxGeometry x="27.5" y="211" width="85" height="30" as="geometry" />
        </mxCell>
        <mxCell id="MfqJ85OkA7hmNE3ASJ4m-76" value="&lt;span style=&quot;font-size: 8px;&quot;&gt;Prompt 向量化&lt;/span&gt;" style="rounded=0;whiteSpace=wrap;html=1;" parent="MfqJ85OkA7hmNE3ASJ4m-29" vertex="1">
          <mxGeometry x="27.5" y="266" width="85" height="30" as="geometry" />
        </mxCell>
        <mxCell id="MfqJ85OkA7hmNE3ASJ4m-79" value="&lt;span style=&quot;font-size: 8px;&quot;&gt;组装提示词&lt;/span&gt;" style="rounded=0;whiteSpace=wrap;html=1;" parent="MfqJ85OkA7hmNE3ASJ4m-29" vertex="1">
          <mxGeometry x="27.5" y="311" width="85" height="30" as="geometry" />
        </mxCell>
        <mxCell id="MfqJ85OkA7hmNE3ASJ4m-83" style="edgeStyle=orthogonalEdgeStyle;rounded=0;orthogonalLoop=1;jettySize=auto;html=1;entryX=0.99;entryY=0.651;entryDx=0;entryDy=0;entryPerimeter=0;" parent="MfqJ85OkA7hmNE3ASJ4m-29" edge="1">
          <mxGeometry relative="1" as="geometry">
            <mxPoint x="225.85000000000002" y="281" as="sourcePoint" />
            <mxPoint x="112.50000000000009" y="316.53" as="targetPoint" />
            <Array as="points">
              <mxPoint x="225.85000000000002" y="317" />
              <mxPoint x="148.85000000000002" y="317" />
            </Array>
          </mxGeometry>
        </mxCell>
        <mxCell id="MfqJ85OkA7hmNE3ASJ4m-84" value="&lt;font color=&quot;#00ff80&quot; style=&quot;font-size: 6px;&quot;&gt;返回匹配到的数据&lt;/font&gt;" style="edgeLabel;html=1;align=center;verticalAlign=middle;resizable=0;points=[];" parent="MfqJ85OkA7hmNE3ASJ4m-83" vertex="1" connectable="0">
          <mxGeometry x="0.0305" relative="1" as="geometry">
            <mxPoint x="-2" y="4" as="offset" />
          </mxGeometry>
        </mxCell>
        <mxCell id="MfqJ85OkA7hmNE3ASJ4m-89" value="&lt;span style=&quot;font-size: 8px;&quot;&gt;返回结果&lt;/span&gt;" style="rounded=0;whiteSpace=wrap;html=1;" parent="MfqJ85OkA7hmNE3ASJ4m-29" vertex="1">
          <mxGeometry x="27.5" y="351" width="85" height="30" as="geometry" />
        </mxCell>
        <mxCell id="MfqJ85OkA7hmNE3ASJ4m-21" value="向量数据库(Milvus)" style="swimlane;startSize=20;html=1;" parent="MfqJ85OkA7hmNE3ASJ4m-20" vertex="1">
          <mxGeometry x="280" y="20" width="170" height="401" as="geometry" />
        </mxCell>
        <mxCell id="MfqJ85OkA7hmNE3ASJ4m-62" value="&lt;span style=&quot;font-size: 8px;&quot;&gt;&lt;b&gt;Text&amp;nbsp; Vector Embeddings&lt;/b&gt;&lt;/span&gt;" style="rounded=0;whiteSpace=wrap;html=1;" parent="MfqJ85OkA7hmNE3ASJ4m-21" vertex="1">
          <mxGeometry x="70" y="187" width="85" height="32" as="geometry" />
        </mxCell>
        <mxCell id="MfqJ85OkA7hmNE3ASJ4m-70" value="&lt;font style=&quot;font-size: 8px;&quot;&gt;创建Collection&lt;/font&gt;" style="rounded=0;whiteSpace=wrap;html=1;" parent="MfqJ85OkA7hmNE3ASJ4m-21" vertex="1">
          <mxGeometry x="70" y="154" width="85" height="35" as="geometry" />
        </mxCell>
        <mxCell id="MfqJ85OkA7hmNE3ASJ4m-77" value="&lt;span style=&quot;font-size: 8px;&quot;&gt;根据文件名和Collection搜索&lt;/span&gt;" style="rounded=0;whiteSpace=wrap;html=1;" parent="MfqJ85OkA7hmNE3ASJ4m-21" vertex="1">
          <mxGeometry x="42.5" y="265" width="85" height="30" as="geometry" />
        </mxCell>
        <mxCell id="MfqJ85OkA7hmNE3ASJ4m-22" value="LLM(gpt4/文心一言)" style="swimlane;startSize=20;html=1;" parent="MfqJ85OkA7hmNE3ASJ4m-20" vertex="1">
          <mxGeometry x="450" y="20" width="160" height="401" as="geometry" />
        </mxCell>
        <mxCell id="MfqJ85OkA7hmNE3ASJ4m-85" value="&lt;font style=&quot;font-size: 8px;&quot;&gt;根据Prompt补全&lt;/font&gt;" style="rounded=0;whiteSpace=wrap;html=1;" parent="MfqJ85OkA7hmNE3ASJ4m-22" vertex="1">
          <mxGeometry x="40" y="311" width="70" height="37" as="geometry" />
        </mxCell>
        <mxCell id="MfqJ85OkA7hmNE3ASJ4m-69" style="edgeStyle=orthogonalEdgeStyle;rounded=0;orthogonalLoop=1;jettySize=auto;html=1;entryX=1.001;entryY=0.619;entryDx=0;entryDy=0;entryPerimeter=0;" parent="MfqJ85OkA7hmNE3ASJ4m-20" source="MfqJ85OkA7hmNE3ASJ4m-62" target="MfqJ85OkA7hmNE3ASJ4m-65" edge="1">
          <mxGeometry relative="1" as="geometry">
            <Array as="points">
              <mxPoint x="393" y="250" />
              <mxPoint x="301" y="250" />
            </Array>
          </mxGeometry>
        </mxCell>
        <mxCell id="MfqJ85OkA7hmNE3ASJ4m-72" style="edgeStyle=orthogonalEdgeStyle;rounded=0;orthogonalLoop=1;jettySize=auto;html=1;exitX=1;exitY=0.5;exitDx=0;exitDy=0;entryX=-0.014;entryY=0.88;entryDx=0;entryDy=0;entryPerimeter=0;" parent="MfqJ85OkA7hmNE3ASJ4m-20" source="MfqJ85OkA7hmNE3ASJ4m-59" target="MfqJ85OkA7hmNE3ASJ4m-70" edge="1">
          <mxGeometry relative="1" as="geometry" />
        </mxCell>
        <mxCell id="MfqJ85OkA7hmNE3ASJ4m-75" style="edgeStyle=orthogonalEdgeStyle;rounded=0;orthogonalLoop=1;jettySize=auto;html=1;entryX=0;entryY=0.5;entryDx=0;entryDy=0;" parent="MfqJ85OkA7hmNE3ASJ4m-20" source="MfqJ85OkA7hmNE3ASJ4m-74" target="MfqJ85OkA7hmNE3ASJ4m-76" edge="1">
          <mxGeometry relative="1" as="geometry">
            <mxPoint x="160" y="286" as="targetPoint" />
          </mxGeometry>
        </mxCell>
        <mxCell id="MfqJ85OkA7hmNE3ASJ4m-78" style="edgeStyle=orthogonalEdgeStyle;rounded=0;orthogonalLoop=1;jettySize=auto;html=1;entryX=0;entryY=0.5;entryDx=0;entryDy=0;" parent="MfqJ85OkA7hmNE3ASJ4m-20" source="MfqJ85OkA7hmNE3ASJ4m-76" target="MfqJ85OkA7hmNE3ASJ4m-77" edge="1">
          <mxGeometry relative="1" as="geometry" />
        </mxCell>
        <mxCell id="MfqJ85OkA7hmNE3ASJ4m-80" style="edgeStyle=orthogonalEdgeStyle;rounded=0;orthogonalLoop=1;jettySize=auto;html=1;entryX=0;entryY=0.5;entryDx=0;entryDy=0;" parent="MfqJ85OkA7hmNE3ASJ4m-20" source="MfqJ85OkA7hmNE3ASJ4m-37" target="MfqJ85OkA7hmNE3ASJ4m-39" edge="1">
          <mxGeometry relative="1" as="geometry" />
        </mxCell>
        <mxCell id="MfqJ85OkA7hmNE3ASJ4m-86" style="edgeStyle=orthogonalEdgeStyle;rounded=0;orthogonalLoop=1;jettySize=auto;html=1;exitX=1;exitY=0.75;exitDx=0;exitDy=0;entryX=-0.034;entryY=0.618;entryDx=0;entryDy=0;entryPerimeter=0;" parent="MfqJ85OkA7hmNE3ASJ4m-20" source="MfqJ85OkA7hmNE3ASJ4m-79" target="MfqJ85OkA7hmNE3ASJ4m-85" edge="1">
          <mxGeometry relative="1" as="geometry" />
        </mxCell>
        <mxCell id="MfqJ85OkA7hmNE3ASJ4m-90" style="edgeStyle=orthogonalEdgeStyle;rounded=0;orthogonalLoop=1;jettySize=auto;html=1;entryX=1;entryY=0.75;entryDx=0;entryDy=0;" parent="MfqJ85OkA7hmNE3ASJ4m-20" source="MfqJ85OkA7hmNE3ASJ4m-85" target="MfqJ85OkA7hmNE3ASJ4m-89" edge="1">
          <mxGeometry relative="1" as="geometry">
            <Array as="points">
              <mxPoint x="525" y="394" />
              <mxPoint x="371" y="394" />
            </Array>
          </mxGeometry>
        </mxCell>
      </root>
    </mxGraphModel>
  </diagram>
</mxfile>
